<svg xmlns="http://www.w3.org/2000/svg" xmlns:xlink="http://www.w3.org/1999/xlink" width="500" zoomAndPan="magnify" viewBox="0 0 375 374.999991" height="500" preserveAspectRatio="xMidYMid meet" version="1.0"><rect x="-37.5" width="450" fill="#ffffff" y="-37.499999" height="449.999989" fill-opacity="1"/><rect x="-37.5" width="450" fill="#0e0e10" y="-37.499999" height="449.999989" fill-opacity="1"/><path fill="#ffffff" d="M 12.378906 12.378906 C 12.984375 11.769531 13.617188 11.195312 14.277344 10.652344 C 14.9375 10.109375 15.625 9.597656 16.335938 9.121094 C 17.046875 8.644531 17.78125 8.203125 18.535156 7.800781 C 19.292969 7.394531 20.0625 7.03125 20.855469 6.703125 C 21.644531 6.375 22.453125 6.085938 23.269531 5.835938 C 24.089844 5.585938 24.921875 5.378906 25.761719 5.210938 C 26.601562 5.042969 27.445312 4.917969 28.296875 4.835938 C 29.148438 4.75 30.003906 4.707031 30.859375 4.707031 C 31.71875 4.707031 32.570312 4.75 33.425781 4.835938 C 34.277344 4.917969 35.121094 5.042969 35.960938 5.210938 C 36.800781 5.378906 37.632812 5.585938 38.453125 5.835938 C 39.269531 6.085938 40.074219 6.375 40.867188 6.703125 C 41.65625 7.03125 42.429688 7.394531 43.1875 7.800781 C 43.941406 8.203125 44.675781 8.644531 45.386719 9.121094 C 46.097656 9.597656 46.785156 10.109375 47.445312 10.652344 C 48.105469 11.195312 48.738281 11.769531 49.34375 12.378906 L 187.5 150.585938 L 325.65625 12.378906 C 326.261719 11.773438 326.894531 11.199219 327.554688 10.65625 C 328.21875 10.113281 328.902344 9.601562 329.617188 9.125 C 330.328125 8.652344 331.0625 8.210938 331.816406 7.808594 C 332.570312 7.40625 333.34375 7.039062 334.136719 6.710938 C 334.925781 6.382812 335.730469 6.097656 336.550781 5.847656 C 337.371094 5.597656 338.199219 5.390625 339.039062 5.222656 C 339.878906 5.058594 340.722656 4.929688 341.578125 4.847656 C 342.429688 4.761719 343.28125 4.722656 344.136719 4.722656 C 344.996094 4.722656 345.847656 4.761719 346.699219 4.847656 C 347.550781 4.929688 348.398438 5.058594 349.238281 5.222656 C 350.078125 5.390625 350.90625 5.597656 351.726562 5.847656 C 352.546875 6.097656 353.351562 6.382812 354.140625 6.710938 C 354.933594 7.039062 355.707031 7.40625 356.460938 7.808594 C 357.214844 8.210938 357.949219 8.652344 358.660156 9.125 C 359.371094 9.601562 360.058594 10.113281 360.722656 10.65625 C 361.382812 11.199219 362.015625 11.773438 362.621094 12.378906 C 363.226562 12.984375 363.800781 13.617188 364.34375 14.277344 C 364.886719 14.941406 365.398438 15.625 365.871094 16.339844 C 366.347656 17.050781 366.789062 17.785156 367.191406 18.539062 C 367.59375 19.292969 367.960938 20.066406 368.289062 20.859375 C 368.617188 21.648438 368.902344 22.453125 369.152344 23.273438 C 369.402344 24.09375 369.609375 24.921875 369.777344 25.761719 C 369.941406 26.601562 370.066406 27.445312 370.152344 28.300781 C 370.234375 29.152344 370.277344 30.003906 370.277344 30.859375 C 370.277344 31.71875 370.234375 32.570312 370.152344 33.421875 C 370.066406 34.273438 369.941406 35.121094 369.777344 35.960938 C 369.609375 36.800781 369.402344 37.628906 369.152344 38.449219 C 368.902344 39.269531 368.617188 40.074219 368.289062 40.863281 C 367.960938 41.65625 367.59375 42.429688 367.191406 43.183594 C 366.789062 43.9375 366.347656 44.671875 365.871094 45.382812 C 365.398438 46.09375 364.886719 46.78125 364.34375 47.445312 C 363.800781 48.105469 363.226562 48.738281 362.621094 49.34375 L 224.414062 187.5 L 362.621094 325.65625 C 363.226562 326.261719 363.800781 326.894531 364.34375 327.554688 C 364.886719 328.21875 365.398438 328.902344 365.871094 329.617188 C 366.347656 330.328125 366.789062 331.0625 367.191406 331.816406 C 367.59375 332.570312 367.960938 333.34375 368.289062 334.136719 C 368.617188 334.925781 368.902344 335.730469 369.152344 336.550781 C 369.402344 337.371094 369.609375 338.199219 369.777344 339.039062 C 369.941406 339.878906 370.066406 340.722656 370.152344 341.578125 C 370.234375 342.429688 370.277344 343.28125 370.277344 344.136719 C 370.277344 344.996094 370.234375 345.847656 370.152344 346.699219 C 370.066406 347.550781 369.941406 348.398438 369.777344 349.238281 C 369.609375 350.078125 369.402344 350.90625 369.152344 351.726562 C 368.902344 352.546875 368.617188 353.351562 368.289062 354.140625 C 367.960938 354.933594 367.59375 355.707031 367.191406 356.460938 C 366.789062 357.214844 366.347656 357.949219 365.871094 358.660156 C 365.398438 359.371094 364.886719 360.058594 364.34375 360.722656 C 363.800781 361.382812 363.226562 362.015625 362.621094 362.621094 C 362.015625 363.226562 361.382812 363.800781 360.722656 364.34375 C 360.058594 364.886719 359.371094 365.398438 358.660156 365.871094 C 357.949219 366.347656 357.214844 366.789062 356.460938 367.191406 C 355.707031 367.59375 354.933594 367.960938 354.140625 368.289062 C 353.351562 368.617188 352.546875 368.902344 351.726562 369.152344 C 350.90625 369.402344 350.078125 369.609375 349.238281 369.777344 C 348.398438 369.941406 347.550781 370.066406 346.699219 370.152344 C 345.847656 370.234375 344.996094 370.277344 344.136719 370.277344 C 343.28125 370.277344 342.429688 370.234375 341.578125 370.152344 C 340.722656 370.066406 339.878906 369.941406 339.039062 369.777344 C 338.199219 369.609375 337.371094 369.402344 336.550781 369.152344 C 335.730469 368.902344 334.925781 368.617188 334.136719 368.289062 C 333.34375 367.960938 332.570312 367.59375 331.816406 367.191406 C 331.0625 366.789062 330.328125 366.347656 329.617188 365.871094 C 328.902344 365.398438 328.21875 364.886719 327.554688 364.34375 C 326.894531 363.800781 326.261719 363.226562 325.65625 362.621094 L 187.5 224.414062 L 49.34375 362.621094 C 48.738281 363.226562 48.105469 363.800781 47.445312 364.34375 C 46.78125 364.886719 46.09375 365.398438 45.382812 365.871094 C 44.671875 366.347656 43.9375 366.789062 43.183594 367.191406 C 42.429688 367.59375 41.65625 367.960938 40.863281 368.289062 C 40.074219 368.617188 39.269531 368.902344 38.449219 369.152344 C 37.628906 369.402344 36.800781 369.609375 35.960938 369.777344 C 35.121094 369.941406 34.273438 370.066406 33.421875 370.152344 C 32.570312 370.234375 31.71875 370.277344 30.859375 370.277344 C 30.003906 370.277344 29.152344 370.234375 28.300781 370.152344 C 27.445312 370.066406 26.601562 369.941406 25.761719 369.777344 C 24.921875 369.609375 24.09375 369.402344 23.273438 369.152344 C 22.453125 368.902344 21.648438 368.617188 20.859375 368.289062 C 20.066406 367.960938 19.292969 367.59375 18.539062 367.191406 C 17.785156 366.789062 17.050781 366.347656 16.339844 365.871094 C 15.625 365.398438 14.941406 364.886719 14.277344 364.34375 C 13.617188 363.800781 12.984375 363.226562 12.378906 362.621094 C 11.773438 362.015625 11.199219 361.382812 10.65625 360.722656 C 10.113281 360.058594 9.601562 359.371094 9.125 358.660156 C 8.652344 357.949219 8.210938 357.214844 7.808594 356.460938 C 7.40625 355.707031 7.039062 354.933594 6.710938 354.140625 C 6.382812 353.351562 6.097656 352.546875 5.847656 351.726562 C 5.597656 350.90625 5.390625 350.078125 5.222656 349.238281 C 5.058594 348.398438 4.929688 347.550781 4.847656 346.699219 C 4.761719 345.847656 4.722656 344.996094 4.722656 344.136719 C 4.722656 343.28125 4.761719 342.429688 4.847656 341.578125 C 4.929688 340.722656 5.058594 339.878906 5.222656 339.039062 C 5.390625 338.199219 5.597656 337.371094 5.847656 336.550781 C 6.097656 335.730469 6.382812 334.925781 6.710938 334.136719 C 7.039062 333.34375 7.40625 332.570312 7.808594 331.816406 C 8.210938 331.0625 8.652344 330.328125 9.125 329.617188 C 9.601562 328.902344 10.113281 328.21875 10.65625 327.554688 C 11.199219 326.894531 11.773438 326.261719 12.378906 325.65625 L 150.585938 187.5 L 12.378906 49.34375 C 11.769531 48.738281 11.195312 48.105469 10.652344 47.445312 C 10.109375 46.785156 9.597656 46.097656 9.121094 45.386719 C 8.644531 44.675781 8.203125 43.941406 7.800781 43.1875 C 7.394531 42.429688 7.03125 41.65625 6.703125 40.867188 C 6.375 40.074219 6.085938 39.269531 5.835938 38.453125 C 5.585938 37.632812 5.378906 36.800781 5.210938 35.960938 C 5.042969 35.121094 4.917969 34.277344 4.835938 33.425781 C 4.75 32.570312 4.707031 31.71875 4.707031 30.859375 C 4.707031 30.003906 4.75 29.148438 4.835938 28.296875 C 4.917969 27.445312 5.042969 26.601562 5.210938 25.761719 C 5.378906 24.921875 5.585938 24.089844 5.835938 23.269531 C 6.085938 22.453125 6.375 21.644531 6.703125 20.855469 C 7.03125 20.0625 7.394531 19.292969 7.800781 18.535156 C 8.203125 17.78125 8.644531 17.046875 9.121094 16.335938 C 9.597656 15.625 10.109375 14.9375 10.652344 14.277344 C 11.195312 13.617188 11.769531 12.984375 12.378906 12.378906 " fill-opacity="1" fill-rule="nonzero"/></svg>