<svg xmlns="http://www.w3.org/2000/svg" xmlns:xlink="http://www.w3.org/1999/xlink" width="500" zoomAndPan="magnify" viewBox="0 0 375 374.999991" height="500" preserveAspectRatio="xMidYMid meet" version="1.0"><rect x="-37.5" width="450" fill="#ffffff" y="-37.499999" height="449.999989" fill-opacity="1"/><rect x="-37.5" width="450" fill="#0e0e10" y="-37.499999" height="449.999989" fill-opacity="1"/><path fill="#ffffff" d="M 5.949219 319.527344 C 5.949219 318.984375 5.976562 318.445312 6.03125 317.910156 C 6.082031 317.371094 6.160156 316.835938 6.265625 316.308594 C 6.371094 315.777344 6.503906 315.253906 6.660156 314.734375 C 6.816406 314.21875 7 313.710938 7.207031 313.210938 C 7.414062 312.710938 7.644531 312.222656 7.898438 311.746094 C 8.152344 311.269531 8.429688 310.808594 8.730469 310.359375 C 9.03125 309.90625 9.355469 309.472656 9.695312 309.054688 C 10.039062 308.640625 10.402344 308.238281 10.785156 307.855469 C 11.167969 307.472656 11.566406 307.113281 11.984375 306.769531 C 12.402344 306.425781 12.835938 306.105469 13.285156 305.804688 C 13.734375 305.503906 14.199219 305.226562 14.675781 304.972656 C 15.152344 304.714844 15.640625 304.484375 16.136719 304.277344 C 16.636719 304.070312 17.144531 303.890625 17.664062 303.734375 C 18.179688 303.578125 18.703125 303.445312 19.234375 303.339844 C 19.765625 303.234375 20.296875 303.15625 20.835938 303.101562 C 21.375 303.050781 21.914062 303.023438 22.453125 303.023438 L 352.535156 303.023438 C 353.074219 303.023438 353.613281 303.050781 354.152344 303.101562 C 354.691406 303.15625 355.222656 303.234375 355.753906 303.339844 C 356.285156 303.445312 356.808594 303.578125 357.324219 303.734375 C 357.84375 303.890625 358.351562 304.070312 358.851562 304.277344 C 359.351562 304.484375 359.839844 304.714844 360.316406 304.972656 C 360.792969 305.226562 361.253906 305.503906 361.703125 305.804688 C 362.152344 306.105469 362.585938 306.425781 363.003906 306.769531 C 363.421875 307.113281 363.824219 307.472656 364.203125 307.855469 C 364.585938 308.238281 364.949219 308.640625 365.292969 309.054688 C 365.636719 309.472656 365.957031 309.90625 366.257812 310.359375 C 366.558594 310.808594 366.835938 311.269531 367.089844 311.746094 C 367.34375 312.222656 367.574219 312.710938 367.78125 313.210938 C 367.988281 313.710938 368.171875 314.21875 368.328125 314.734375 C 368.484375 315.253906 368.617188 315.777344 368.722656 316.308594 C 368.828125 316.835938 368.90625 317.371094 368.960938 317.910156 C 369.011719 318.445312 369.039062 318.984375 369.039062 319.527344 C 369.039062 320.066406 369.011719 320.605469 368.960938 321.144531 C 368.90625 321.683594 368.828125 322.214844 368.722656 322.746094 C 368.617188 323.277344 368.484375 323.800781 368.328125 324.316406 C 368.171875 324.835938 367.988281 325.34375 367.78125 325.84375 C 367.574219 326.34375 367.34375 326.828125 367.089844 327.304688 C 366.835938 327.785156 366.558594 328.246094 366.257812 328.695312 C 365.957031 329.144531 365.636719 329.578125 365.292969 329.996094 C 364.949219 330.414062 364.585938 330.816406 364.203125 331.195312 C 363.824219 331.578125 363.421875 331.941406 363.003906 332.285156 C 362.585938 332.628906 362.152344 332.949219 361.703125 333.25 C 361.253906 333.550781 360.792969 333.828125 360.316406 334.082031 C 359.839844 334.335938 359.351562 334.566406 358.851562 334.773438 C 358.351562 334.980469 357.84375 335.164062 357.324219 335.320312 C 356.808594 335.476562 356.285156 335.609375 355.753906 335.714844 C 355.222656 335.820312 354.691406 335.898438 354.152344 335.953125 C 353.613281 336.003906 353.074219 336.03125 352.535156 336.03125 L 22.453125 336.03125 C 21.914062 336.03125 21.375 336.003906 20.835938 335.953125 C 20.296875 335.898438 19.765625 335.820312 19.234375 335.714844 C 18.703125 335.609375 18.179688 335.476562 17.664062 335.320312 C 17.144531 335.164062 16.636719 334.980469 16.136719 334.773438 C 15.640625 334.566406 15.152344 334.335938 14.675781 334.082031 C 14.199219 333.828125 13.734375 333.550781 13.285156 333.25 C 12.835938 332.949219 12.402344 332.628906 11.984375 332.285156 C 11.566406 331.941406 11.167969 331.578125 10.785156 331.195312 C 10.402344 330.816406 10.039062 330.414062 9.695312 329.996094 C 9.351562 329.578125 9.03125 329.144531 8.730469 328.695312 C 8.429688 328.246094 8.152344 327.785156 7.898438 327.304688 C 7.644531 326.828125 7.414062 326.34375 7.207031 325.84375 C 7 325.34375 6.816406 324.835938 6.660156 324.316406 C 6.503906 323.800781 6.371094 323.277344 6.265625 322.746094 C 6.160156 322.214844 6.082031 321.683594 6.03125 321.144531 C 5.976562 320.605469 5.949219 320.066406 5.949219 319.527344 M 5.949219 187.496094 C 5.949219 186.953125 5.976562 186.414062 6.03125 185.875 C 6.082031 185.339844 6.160156 184.804688 6.265625 184.273438 C 6.371094 183.746094 6.503906 183.222656 6.660156 182.703125 C 6.816406 182.1875 7 181.679688 7.207031 181.179688 C 7.414062 180.679688 7.644531 180.191406 7.898438 179.714844 C 8.152344 179.238281 8.429688 178.773438 8.730469 178.324219 C 9.03125 177.875 9.355469 177.441406 9.695312 177.023438 C 10.039062 176.605469 10.402344 176.207031 10.785156 175.824219 C 11.167969 175.441406 11.566406 175.078125 11.984375 174.738281 C 12.402344 174.394531 12.835938 174.070312 13.285156 173.773438 C 13.734375 173.472656 14.199219 173.195312 14.675781 172.9375 C 15.152344 172.683594 15.640625 172.453125 16.136719 172.246094 C 16.636719 172.039062 17.144531 171.859375 17.664062 171.699219 C 18.179688 171.542969 18.703125 171.414062 19.234375 171.308594 C 19.765625 171.203125 20.296875 171.121094 20.835938 171.070312 C 21.375 171.015625 21.914062 170.992188 22.453125 170.992188 L 352.535156 170.992188 C 353.074219 170.992188 353.613281 171.015625 354.152344 171.070312 C 354.691406 171.121094 355.222656 171.203125 355.753906 171.308594 C 356.285156 171.414062 356.808594 171.542969 357.324219 171.699219 C 357.84375 171.859375 358.351562 172.039062 358.851562 172.246094 C 359.351562 172.453125 359.839844 172.683594 360.316406 172.9375 C 360.792969 173.195312 361.253906 173.472656 361.703125 173.773438 C 362.152344 174.070312 362.585938 174.394531 363.003906 174.738281 C 363.421875 175.078125 363.824219 175.441406 364.203125 175.824219 C 364.585938 176.207031 364.949219 176.605469 365.292969 177.023438 C 365.636719 177.441406 365.957031 177.875 366.257812 178.324219 C 366.558594 178.773438 366.835938 179.238281 367.089844 179.714844 C 367.34375 180.191406 367.574219 180.679688 367.78125 181.179688 C 367.988281 181.679688 368.171875 182.1875 368.328125 182.703125 C 368.484375 183.222656 368.617188 183.746094 368.722656 184.273438 C 368.828125 184.804688 368.90625 185.339844 368.960938 185.875 C 369.011719 186.414062 369.039062 186.953125 369.039062 187.496094 C 369.039062 188.035156 369.011719 188.574219 368.960938 189.113281 C 368.90625 189.648438 368.828125 190.183594 368.722656 190.714844 C 368.617188 191.246094 368.484375 191.769531 368.328125 192.285156 C 368.171875 192.800781 367.988281 193.3125 367.78125 193.808594 C 367.574219 194.308594 367.34375 194.796875 367.089844 195.273438 C 366.835938 195.75 366.558594 196.214844 366.257812 196.664062 C 365.957031 197.113281 365.636719 197.546875 365.292969 197.964844 C 364.949219 198.382812 364.585938 198.78125 364.203125 199.164062 C 363.824219 199.546875 363.421875 199.910156 363.003906 200.253906 C 362.585938 200.59375 362.152344 200.917969 361.703125 201.21875 C 361.253906 201.515625 360.792969 201.792969 360.316406 202.050781 C 359.839844 202.304688 359.351562 202.535156 358.851562 202.742188 C 358.351562 202.949219 357.84375 203.132812 357.324219 203.289062 C 356.808594 203.445312 356.285156 203.574219 355.753906 203.679688 C 355.222656 203.785156 354.691406 203.867188 354.152344 203.917969 C 353.613281 203.972656 353.074219 204 352.535156 204 L 22.453125 204 C 21.914062 204 21.375 203.972656 20.835938 203.917969 C 20.296875 203.867188 19.765625 203.785156 19.234375 203.679688 C 18.703125 203.574219 18.179688 203.445312 17.664062 203.289062 C 17.144531 203.132812 16.636719 202.949219 16.136719 202.742188 C 15.640625 202.535156 15.152344 202.304688 14.675781 202.050781 C 14.199219 201.792969 13.734375 201.515625 13.285156 201.21875 C 12.835938 200.917969 12.402344 200.59375 11.984375 200.253906 C 11.566406 199.910156 11.167969 199.546875 10.785156 199.164062 C 10.402344 198.78125 10.039062 198.382812 9.695312 197.964844 C 9.351562 197.546875 9.03125 197.113281 8.730469 196.664062 C 8.429688 196.214844 8.152344 195.75 7.898438 195.273438 C 7.644531 194.796875 7.414062 194.308594 7.207031 193.808594 C 7 193.3125 6.816406 192.800781 6.660156 192.285156 C 6.503906 191.769531 6.371094 191.246094 6.265625 190.714844 C 6.160156 190.183594 6.082031 189.648438 6.03125 189.113281 C 5.976562 188.574219 5.949219 188.035156 5.949219 187.496094 M 5.949219 55.460938 C 5.949219 54.921875 5.976562 54.382812 6.03125 53.84375 C 6.082031 53.308594 6.160156 52.773438 6.265625 52.242188 C 6.371094 51.710938 6.503906 51.1875 6.660156 50.671875 C 6.816406 50.152344 7 49.644531 7.207031 49.144531 C 7.414062 48.648438 7.644531 48.160156 7.898438 47.683594 C 8.152344 47.207031 8.429688 46.742188 8.730469 46.292969 C 9.03125 45.84375 9.355469 45.410156 9.695312 44.992188 C 10.039062 44.574219 10.402344 44.175781 10.785156 43.792969 C 11.167969 43.410156 11.566406 43.046875 11.984375 42.703125 C 12.402344 42.363281 12.835938 42.039062 13.285156 41.738281 C 13.734375 41.4375 14.199219 41.160156 14.675781 40.90625 C 15.152344 40.652344 15.640625 40.421875 16.136719 40.214844 C 16.636719 40.007812 17.144531 39.824219 17.664062 39.667969 C 18.179688 39.511719 18.703125 39.378906 19.234375 39.273438 C 19.765625 39.167969 20.296875 39.089844 20.835938 39.039062 C 21.375 38.984375 21.914062 38.957031 22.453125 38.957031 L 352.535156 38.957031 C 353.074219 38.957031 353.613281 38.984375 354.152344 39.039062 C 354.691406 39.089844 355.222656 39.167969 355.753906 39.273438 C 356.285156 39.378906 356.808594 39.511719 357.324219 39.667969 C 357.84375 39.824219 358.351562 40.007812 358.851562 40.214844 C 359.351562 40.421875 359.839844 40.652344 360.316406 40.90625 C 360.792969 41.160156 361.253906 41.4375 361.703125 41.738281 C 362.152344 42.039062 362.585938 42.363281 363.003906 42.703125 C 363.421875 43.046875 363.824219 43.410156 364.203125 43.792969 C 364.585938 44.175781 364.949219 44.574219 365.292969 44.992188 C 365.636719 45.410156 365.957031 45.84375 366.257812 46.292969 C 366.558594 46.742188 366.835938 47.207031 367.089844 47.683594 C 367.34375 48.160156 367.574219 48.648438 367.78125 49.144531 C 367.988281 49.644531 368.171875 50.152344 368.328125 50.671875 C 368.484375 51.1875 368.617188 51.710938 368.722656 52.242188 C 368.828125 52.773438 368.90625 53.308594 368.960938 53.84375 C 369.011719 54.382812 369.039062 54.921875 369.039062 55.460938 C 369.039062 56.003906 369.011719 56.542969 368.960938 57.078125 C 368.90625 57.617188 368.828125 58.152344 368.722656 58.683594 C 368.617188 59.210938 368.484375 59.734375 368.328125 60.253906 C 368.171875 60.769531 367.988281 61.277344 367.78125 61.777344 C 367.574219 62.277344 367.34375 62.765625 367.089844 63.242188 C 366.835938 63.71875 366.558594 64.183594 366.257812 64.632812 C 365.957031 65.082031 365.636719 65.515625 365.292969 65.933594 C 364.949219 66.351562 364.585938 66.75 364.203125 67.132812 C 363.824219 67.515625 363.421875 67.878906 363.003906 68.21875 C 362.585938 68.5625 362.152344 68.882812 361.703125 69.183594 C 361.253906 69.484375 360.792969 69.761719 360.316406 70.015625 C 359.839844 70.273438 359.351562 70.503906 358.851562 70.710938 C 358.351562 70.917969 357.84375 71.097656 357.324219 71.253906 C 356.808594 71.414062 356.285156 71.542969 355.753906 71.648438 C 355.222656 71.753906 354.691406 71.832031 354.152344 71.886719 C 353.613281 71.941406 353.074219 71.964844 352.535156 71.964844 L 22.453125 71.964844 C 21.914062 71.964844 21.375 71.941406 20.835938 71.886719 C 20.296875 71.832031 19.765625 71.753906 19.234375 71.648438 C 18.703125 71.542969 18.179688 71.414062 17.664062 71.253906 C 17.144531 71.097656 16.636719 70.917969 16.136719 70.710938 C 15.640625 70.503906 15.152344 70.273438 14.675781 70.015625 C 14.199219 69.761719 13.734375 69.484375 13.285156 69.183594 C 12.835938 68.882812 12.402344 68.5625 11.984375 68.21875 C 11.566406 67.878906 11.167969 67.515625 10.785156 67.132812 C 10.402344 66.75 10.039062 66.351562 9.695312 65.933594 C 9.351562 65.515625 9.03125 65.082031 8.730469 64.632812 C 8.429688 64.183594 8.152344 63.71875 7.898438 63.242188 C 7.644531 62.765625 7.414062 62.277344 7.207031 61.777344 C 7 61.277344 6.816406 60.769531 6.660156 60.253906 C 6.503906 59.734375 6.371094 59.210938 6.265625 58.683594 C 6.160156 58.152344 6.082031 57.617188 6.03125 57.078125 C 5.976562 56.542969 5.949219 56.003906 5.949219 55.460938 " fill-opacity="1" fill-rule="evenodd"/></svg>